<svg width="79" height="81" fill="none" xmlns="http://www.w3.org/2000/svg"><g clip-path="url(#clip0)"><path d="M24.138 75.535c-2.141-.78-4.088-1.952-6.034-3.123-1.947-1.17-3.699-2.732-5.451-4.099-3.31-3.123-6.23-6.83-8.37-10.735-.974-1.951-1.947-4.098-2.726-6.245C.78 49.186.39 46.843 0 44.697v-7.222c0-1.171.195-2.342.195-3.318.194-1.171.389-2.342.584-3.318.194-1.171.584-2.147.778-3.318.39-1.172.779-2.147 1.168-3.123.779-2.147 1.947-4.1 3.115-6.05 2.336-3.904 5.45-7.223 8.954-9.955 3.504-2.733 7.592-4.88 11.875-6.246.973-.39 2.141-.585 3.309-.976 1.168-.195 2.141-.39 3.31-.585 1.167-.196 2.14-.196 3.309-.39h4.087C21.608.975 6.62 16.785 6.62 36.108c0 3.318.389 6.636 1.362 9.759.195.975.584 1.951.779 2.927.584 1.757 1.362 3.514 2.336 5.075 1.752 3.318 4.088 6.246 7.008 8.588l.778.78c1.168.977 2.336 1.757 3.504 2.538 1.558.976 3.31 1.757 4.867 2.537 1.168.39 2.53.976 3.698 1.171 1.168-.39 2.336-.975 3.893-1.951 7.008-6.05 18.104 1.366 25.307-2.538.389-.195.778-.39 1.362-.195.39.195.974.39.779 1.171v.39c-1.363 5.66-8.176 5.66-12.653 5.075-1.363-.195-2.336-.39-3.115-.39-1.362-.195-2.336.39-2.141 1.171 0 .78.973 1.757 3.31 2.342 16.156 2.928 25.89-17.176 30.172-12.687 1.752 2.733-18.882 30.839-53.727 13.663z" fill="url(#paint0_linear)"/><path d="M69.69 59.53c3.503-5.27 5.45-11.71 5.45-18.737 0-18.347-14.016-33.181-31.146-33.181-17.13 0-31.146 14.834-31.146 33.18 0 7.027 1.946 13.468 5.45 18.738-5.256-6.246-8.565-14.248-8.565-22.836 0-19.128 15.378-34.547 34.26-34.547 18.883 0 34.261 15.42 34.261 34.352 0 8.783-3.114 16.785-8.565 23.031z" fill="url(#paint1_linear)"/><path d="M60.93 32.205h-8.76c-.974 0-1.752-.78-1.752-1.756V21.86c0-.976-.78-1.757-1.752-1.757h-9.733c-.974 0-1.752.78-1.752 1.757v8.588c0 .975-.78 1.756-1.752 1.756h-8.37c-.974 0-1.753.78-1.753 1.757v9.954c0 .976.779 1.757 1.752 1.757h8.37c.974 0 1.753.78 1.753 1.756v8.588c0 .976.778 1.757 1.752 1.757h9.927c.974 0 1.752-.78 1.752-1.757V47.43c0-.976.779-1.756 1.752-1.756h8.76c.973 0 1.752-.781 1.752-1.757v-9.954c-.195-1.171-.973-1.757-1.947-1.757z" fill="url(#paint2_linear)"/></g><defs><linearGradient id="paint0_linear" x1="10.311" y1="-6.444" x2="54.624" y2="87.982" gradientUnits="userSpaceOnUse"><stop offset=".02" stop-color="#3FA1D5"/><stop offset=".484" stop-color="#31A666"/><stop offset="1" stop-color="#D8D70C"/></linearGradient><linearGradient id="paint1_linear" x1="9.718" y1="30.823" x2="78.33" y2="30.823" gradientUnits="userSpaceOnUse"><stop offset=".009" stop-color="#31A666"/><stop offset="1" stop-color="#D8D70C"/></linearGradient><linearGradient id="paint2_linear" x1="61.824" y1="62.135" x2="18.484" y2="5.516" gradientUnits="userSpaceOnUse"><stop stop-color="#38A762"/><stop offset="1" stop-color="#3FA1D5"/></linearGradient><clipPath id="clip0"><path fill="#fff" d="M0 0h78.254v81H0z"/></clipPath></defs></svg>